# xmcd
#
# Track frame offsets: 
#        150
#        13964
#        26417
#        38232
#        55330
#        74090
#        90438
#        107886
#        120534
#        137472
#        151292
#        166932
#
# Disc length: 2444 seconds
#
# Revision: 0
# Processed by: cddbd v1.5.2PL0 Copyright (c) Steve Scherf et al.
# Submitted via: ExactAudioCopy v1.3
#
DISCID=9b098a0c
DTITLE=青江三奈 - お富さん ～渡久地政信 作品集～
DYEAR=1976
DGENRE=歌謡曲
TTITLE0=お富さん
TTITLE1=夜霧に消えたチャコ
TTITLE2=上海帰りのリル
TTITLE3=踊子
TTITLE4=俺は淋しいんだ
TTITLE5=池袋の夜
TTITLE6=島のブルース
TTITLE7=東京アンナ
TTITLE8=お百度こいさん
TTITLE9=東京の椿姫
TTITLE10=背広姿の渡り鳥
TTITLE11=長崎ブルース
EXTD=
EXTT0=
EXTT1=
EXTT2=
EXTT3=
EXTT4=
EXTT5=
EXTT6=
EXTT7=
EXTT8=
EXTT9=
EXTT10=
EXTT11=
PLAYORDER=
